<svg width="59" height="59" viewBox="0 0 59 59" fill="none" xmlns="http://www.w3.org/2000/svg">
<path d="M40.8545 0C40.9918 0 41.1291 0 41.2742 0C41.611 4.1608 40.0228 7.26975 38.0927 9.52114C36.1988 11.757 33.6055 13.9255 29.411 13.5965C29.1312 9.49524 30.7219 6.61687 32.6495 4.37066C34.4371 2.2773 37.7144 0.414526 40.8545 0Z" fill="white"/>
<path d="M53.5517 43.3076C53.5517 43.349 53.5517 43.3853 53.5517 43.4242C52.3729 46.9943 50.6915 50.054 48.6396 52.8935C46.7665 55.4713 44.471 58.9404 40.3724 58.9404C36.8308 58.9404 34.4783 56.6631 30.8487 56.6009C27.0091 56.5387 24.8976 58.5052 21.3871 59C20.9855 59 20.584 59 20.1902 59C17.6123 58.6269 15.5319 56.5854 14.0163 54.7459C9.54721 49.3104 6.09369 42.2894 5.45117 33.3046C5.45117 32.4237 5.45117 31.5454 5.45117 30.6646C5.7232 24.2342 8.84769 19.006 13.0007 16.4722C15.1925 15.125 18.2056 13.9773 21.5607 14.4903C22.9986 14.7131 24.4676 15.2053 25.7552 15.6924C26.9754 16.1613 28.5014 16.993 29.9471 16.9489C30.9264 16.9204 31.9005 16.41 32.8876 16.0499C35.7789 15.0058 38.6133 13.8089 42.3492 14.3711C46.839 15.0499 50.0257 17.0448 51.9947 20.1226C48.1966 22.5398 45.1938 26.1825 45.7068 32.403C46.1628 38.0535 49.4479 41.3593 53.5517 43.3076Z" fill="white"/>
</svg>
