<svg width="30" height="30" viewBox="0 0 30 30" fill="none" xmlns="http://www.w3.org/2000/svg">
<path d="M15 30C6.717 30 0 23.283 0 15C0 6.717 6.717 0 15 0C23.283 0 30 6.717 30 15C30 23.283 23.283 30 15 30Z" fill="#25D366"/>
<path fill-rule="evenodd" clip-rule="evenodd" d="M22.0165 8.01602C20.1565 6.15302 17.6785 5.12702 15.0415 5.12402C9.60854 5.12402 5.18354 9.54602 5.18354 14.982C5.18354 16.719 5.63654 18.417 6.50054 19.911L5.10254 25.02L10.3285 23.649C11.7685 24.435 13.3885 24.849 15.0385 24.849H15.0415C20.4745 24.849 24.8965 20.427 24.8995 14.991C24.9025 12.357 23.8795 9.87902 22.0165 8.01602ZM15.0445 23.184H15.0415C13.5715 23.184 12.1285 22.788 10.8715 22.041L10.5715 21.864L7.46954 22.677L8.29754 19.653L8.10254 19.344C7.28354 18.039 6.84854 16.533 6.84854 14.982C6.85154 10.464 10.5265 6.78902 15.0475 6.78902C17.2375 6.78902 19.2925 7.64402 20.8405 9.19202C22.3885 10.74 23.2405 12.801 23.2375 14.988C23.2375 19.509 19.5595 23.184 15.0445 23.184ZM19.5385 17.046C19.2925 16.923 18.0805 16.326 17.8555 16.245C17.6305 16.164 17.4655 16.122 17.3005 16.368C17.1355 16.614 16.6645 17.169 16.5205 17.334C16.3765 17.499 16.2325 17.52 15.9865 17.397C15.7405 17.274 14.9455 17.013 14.0065 16.173C13.2745 15.519 12.7795 14.712 12.6355 14.466C12.4915 14.22 12.6205 14.085 12.7435 13.962C12.8545 13.851 12.9895 13.674 13.1125 13.53C13.2355 13.386 13.2775 13.284 13.3585 13.119C13.4395 12.954 13.4005 12.81 13.3375 12.687C13.2745 12.564 12.7825 11.352 12.5785 10.857C12.3775 10.377 12.1765 10.443 12.0235 10.434C11.8795 10.428 11.7145 10.425 11.5525 10.425C11.3875 10.425 11.1205 10.488 10.8955 10.734C10.6705 10.98 10.0345 11.577 10.0345 12.789C10.0345 14.001 10.9165 15.174 11.0395 15.336C11.1625 15.501 12.7765 17.988 15.2485 19.056C15.8365 19.311 16.2955 19.461 16.6525 19.575C17.2435 19.764 17.7805 19.737 18.2035 19.674C18.6775 19.602 19.6615 19.077 19.8655 18.504C20.0695 17.928 20.0695 17.436 20.0095 17.334C19.9495 17.232 19.7845 17.172 19.5385 17.046Z" fill="white"/>
</svg>
