<svg width="130" height="129" viewBox="0 0 130 129" fill="none" xmlns="http://www.w3.org/2000/svg">
<g clip-path="url(#clip0_89251_331)">
<path d="M65 129C100.622 129 129.5 100.122 129.5 64.5C129.5 28.8776 100.622 0 65 0C29.3776 0 0.5 28.8776 0.5 64.5C0.5 100.122 29.3776 129 65 129Z" fill="url(#paint0_linear_89251_331)"/>
<path fill-rule="evenodd" clip-rule="evenodd" d="M29.6963 63.8193C48.4993 55.627 61.0378 50.2261 67.3111 47.6169C85.2235 40.1667 88.9456 38.8724 91.3714 38.8295C91.905 38.8202 93.098 38.9525 93.8708 39.5796C95.0172 40.5098 95.0237 42.529 94.8965 43.8653C93.9257 54.0644 89.7256 78.8145 87.5888 90.2376C86.6846 95.071 84.9043 96.6919 83.1809 96.8503C79.4354 97.195 76.5911 94.3749 72.9632 91.997C67.2864 88.2756 64.0793 85.9592 58.5689 82.328C52.2007 78.1315 56.329 75.8251 59.9581 72.0556C60.908 71.0692 77.4112 56.0581 77.7307 54.6963C77.7707 54.526 77.8078 53.8911 77.4306 53.556C77.0534 53.2209 76.4968 53.3352 76.0952 53.4265C75.5258 53.5557 66.457 59.5499 48.8888 71.4089C46.3146 73.1766 43.983 74.0377 41.8941 73.9926C39.591 73.943 35.1612 72.6905 31.8679 71.62C27.8286 70.3071 24.6182 69.6127 24.8978 67.3829C25.0435 66.2211 26.6429 65.0334 29.6963 63.8193Z" fill="white"/>
</g>
<defs>
<linearGradient id="paint0_linear_89251_331" x1="65" y1="0" x2="65" y2="127.992" gradientUnits="userSpaceOnUse">
<stop stop-color="#2AABEE"/>
<stop offset="1" stop-color="#229ED9"/>
</linearGradient>
<clipPath id="clip0_89251_331">
<rect width="129" height="129" fill="white" transform="translate(0.5)"/>
</clipPath>
</defs>
</svg>
