<svg width="130" height="129" viewBox="0 0 130 129" fill="none" xmlns="http://www.w3.org/2000/svg">
<g clip-path="url(#clip0_89251_339)">
<path d="M65 129C29.3831 129 0.5 100.117 0.5 64.5C0.5 28.8831 29.3831 0 65 0C100.617 0 129.5 28.8831 129.5 64.5C129.5 100.117 100.617 129 65 129Z" fill="#25D366"/>
<path fill-rule="evenodd" clip-rule="evenodd" d="M95.1716 34.4688C87.1736 26.4579 76.5182 22.0461 65.1791 22.0332C41.8172 22.0332 22.7897 41.0478 22.7897 64.4226C22.7897 71.8917 24.7376 79.1931 28.4528 85.6173L22.4414 107.586L44.9132 101.691C51.1052 105.07 58.0712 106.851 65.1662 106.851H65.1791C88.541 106.851 107.556 87.8361 107.569 64.4613C107.581 53.1351 103.183 42.4797 95.1716 34.4688ZM65.192 99.6912H65.1791C58.8581 99.6912 52.6532 97.9884 47.2481 94.7763L45.9581 94.0152L32.6195 97.5111L36.1799 84.5079L35.3414 83.1792C31.8197 77.5677 29.9492 71.0919 29.9492 64.4226C29.9621 44.9952 45.7646 29.1927 65.2049 29.1927C74.6219 29.1927 83.4584 32.8692 90.1148 39.5256C96.7712 46.182 100.435 55.0443 100.422 64.4484C100.422 83.8887 84.6065 99.6912 65.192 99.6912ZM84.5162 73.2978C83.4584 72.7689 78.2468 70.2018 77.2793 69.8535C76.3118 69.5052 75.6023 69.3246 74.8928 70.3824C74.1833 71.4402 72.158 73.8267 71.5388 74.5362C70.9196 75.2457 70.3004 75.336 69.2426 74.8071C68.1848 74.2782 64.7663 73.1559 60.7286 69.5439C57.581 66.7317 55.4525 63.2616 54.8333 62.2038C54.2141 61.146 54.7688 60.5655 55.2977 60.0366C55.775 59.5593 56.3555 58.7982 56.8844 58.179C57.4133 57.5598 57.5939 57.1212 57.9422 56.4117C58.2905 55.7022 58.1228 55.083 57.8519 54.5541C57.581 54.0252 55.4654 48.8136 54.5882 46.6851C53.7239 44.6211 52.8596 44.9049 52.2017 44.8662C51.5825 44.8404 50.873 44.8275 50.1764 44.8275C49.4669 44.8275 48.3188 45.0984 47.3513 46.1562C46.3838 47.214 43.649 49.7811 43.649 54.9927C43.649 60.2043 47.4416 65.2482 47.9705 65.9448C48.4994 66.6543 55.4396 77.3484 66.0692 81.9408C68.5976 83.0373 70.5713 83.6823 72.1064 84.1725C74.6477 84.9852 76.9568 84.8691 78.7757 84.5982C80.8139 84.2886 85.0451 82.0311 85.9223 79.5672C86.7995 77.0904 86.7995 74.9748 86.5415 74.5362C86.2835 74.0976 85.574 73.8396 84.5162 73.2978Z" fill="white"/>
</g>
<defs>
<clipPath id="clip0_89251_339">
<rect width="129" height="129" fill="white" transform="translate(0.5)"/>
</clipPath>
</defs>
</svg>
